<?xml version="1.0" encoding="UTF-8" standalone="no"?>
<svg
   id="svg"
   version="1.1"
   width="58.213608"
   height="28.801582"
   viewBox="0 0 58.213608 28.801582"
   sodipodi:docname="logosm.svg"
   inkscape:version="1.1 (c68e22c387, 2021-05-23)"
   xmlns:inkscape="http://www.inkscape.org/namespaces/inkscape"
   xmlns:sodipodi="http://sodipodi.sourceforge.net/DTD/sodipodi-0.dtd"
   xmlns="http://www.w3.org/2000/svg"
   xmlns:svg="http://www.w3.org/2000/svg">
  <defs
     id="defs11" />
  <sodipodi:namedview
     id="namedview9"
     pagecolor="#ffffff"
     bordercolor="#666666"
     borderopacity="1.0"
     inkscape:pageshadow="2"
     inkscape:pageopacity="0.0"
     inkscape:pagecheckerboard="0"
     showgrid="false"
     inkscape:zoom="1.3"
     inkscape:cx="-12.692308"
     inkscape:cy="78.846154"
     inkscape:window-width="1366"
     inkscape:window-height="705"
     inkscape:window-x="-8"
     inkscape:window-y="-8"
     inkscape:window-maximized="1"
     inkscape:current-layer="svg"
     fit-margin-top="0"
     fit-margin-left="0"
     fit-margin-right="0"
     fit-margin-bottom="0" />
  <g
     id="svgg"
     transform="matrix(0.24725,0,0,0.25,-12.612717,-23.993911)">
    <path
       id="path0"
       d="m 211.487,96.518 c -6.523,1.337 -10.828,5.551 -12.181,11.926 -1.463,6.888 -0.233,10.046 13.588,34.889 9.512,17.1 10.215,18.692 10.21,23.148 -0.005,5.445 -3.657,9.445 -8.624,9.445 -5.24,0 -7.073,-2.575 -7.073,-9.937 v -4.781 l -1.388,-0.23 c -2.623,-0.433 -5.528,-0.273 -6.03,0.332 -0.546,0.658 -0.293,8.066 0.405,11.838 2.628,14.213 24.728,14.334 29.636,0.163 2.618,-7.56 0.85,-13.604 -9.475,-32.385 -11.17,-20.319 -13.467,-25.402 -13.57,-30.021 -0.096,-4.348 3.907,-7.572 9.403,-7.572 4.377,0 6.407,2.872 6.891,9.749 l 0.24,3.399 3.518,0.198 c 4.433,0.248 4.194,0.563 3.981,-5.26 -0.426,-11.646 -7.834,-17.298 -19.531,-14.901 m -43.237,0.078 c -0.725,0.461 -1.159,85.569 -0.438,86.025 0.636,0.403 26.147,0.458 26.394,0.057 0.097,-0.156 0.065,-1.865 -0.07,-3.796 l -0.247,-3.512 -8.786,-0.064 c -4.832,-0.035 -8.928,-0.152 -9.101,-0.259 -0.325,-0.201 -0.205,-28.963 0.134,-32.269 l 0.19,-1.852 6.501,0.109 c 7.744,0.131 7.516,0.235 7.396,-3.391 -0.126,-3.799 0.353,-3.57 -7.475,-3.57 h -6.839 l 0.176,-15.044 c 0.097,-8.275 0.281,-15.15 0.41,-15.278 0.128,-0.128 3.859,-0.177 8.291,-0.108 9.744,0.152 9.288,0.359 9.288,-4.226 v -3.122 l -12.685,0.006 c -6.977,0.003 -12.889,0.135 -13.139,0.294 m -34.4,1.021 c -0.131,0.522 -0.145,4.897 -0.032,9.722 0.114,4.825 0.38,18.605 0.591,30.624 0.211,12.018 0.57,25.813 0.799,30.655 0.228,4.842 0.3,9.638 0.16,10.658 -0.194,1.411 -0.112,2.073 0.343,2.767 l 0.597,0.912 10.272,-0.196 c 5.65,-0.107 11.297,-0.284 12.55,-0.392 l 2.278,-0.196 0.152,-3.215 c 0.222,-4.706 1.216,-4.287 -9.584,-4.037 l -9.383,0.218 -0.034,-3.032 c -0.019,-1.667 -0.015,-11.403 0.008,-21.636 0.024,-10.232 -0.138,-22.315 -0.36,-26.851 -0.222,-4.536 -0.405,-12.352 -0.407,-17.368 l -0.004,-9.12 -1.69,-0.232 c -3.991,-0.547 -5.996,-0.316 -6.256,0.719 M 76.636,97.191 c -0.085,0.085 -0.134,16.29 -0.108,36.012 0.038,29.8 -0.042,36.104 -0.471,37.32 -1.281,3.63 -4.02,5.463 -8.204,5.489 -5.327,0.034 -7.449,-2.62 -7.768,-9.716 -0.217,-4.826 -0.208,-4.815 -3.804,-4.815 -4.231,0 -4.06,-0.178 -4.052,4.207 0.02,12.088 5.016,17.645 15.86,17.645 8.31,0 13.728,-3.887 15.856,-11.377 0.736,-2.589 1.135,-73.585 0.419,-74.456 -0.356,-0.433 -7.326,-0.711 -7.728,-0.309 m 16.645,0.679 c -1.178,2.189 -0.389,71.475 0.863,75.672 2.686,9.011 9.863,12.893 20.92,11.316 4.943,-0.705 9.334,-6.451 10.456,-13.68 0.459,-2.961 0.492,-17.771 0.063,-28.585 -0.158,-3.973 -0.129,-12.306 0.064,-18.519 0.42,-13.565 0.408,-26.315 -0.026,-26.75 -0.174,-0.173 -1.968,-0.267 -3.987,-0.209 l -3.671,0.107 -0.034,2.408 c -0.205,14.751 -0.311,40.7 -0.211,51.671 0.147,16.171 -0.211,19.172 -2.768,23.223 -2.947,4.668 -10.449,3.544 -12.807,-1.919 -0.704,-1.631 -0.724,-2.741 -0.701,-38.624 l 0.024,-36.944 h -3.868 c -3.632,0 -3.896,0.051 -4.317,0.833 m 156.379,41.591 c -5.45,4.924 -1.9,17.946 4.892,17.946 7.079,0 7.574,-14.977 0.612,-18.529 -2.219,-1.132 -3.79,-0.965 -5.504,0.583 m 18.367,0.334 c -4.168,2.829 -6.278,7.737 -5.411,12.59 1.828,10.243 13.458,4.833 13.486,-6.274 0.016,-6.124 -3.874,-9.167 -8.075,-6.316 m -30.996,12.377 c -3.899,2.084 -3.788,8.931 0.217,13.363 6.013,6.656 13.199,1.11 9.876,-7.621 -1.906,-5.007 -6.539,-7.643 -10.093,-5.742 m 40.914,1.006 c -6.883,4.494 -6.523,16.074 0.499,16.08 5.475,0.005 9.885,-8.612 7.207,-14.081 -1.485,-3.032 -4.806,-3.894 -7.706,-1.999 m -22.225,7.532 c -6.48,3.717 -13.111,14.916 -11.674,19.713 1.262,4.212 4.532,5.348 9.934,3.453 4.364,-1.531 4.373,-1.531 9.303,-0.298 11.85,2.963 16.392,-0.982 11.7,-10.161 -5.428,-10.618 -13.556,-15.98 -19.263,-12.707 m -194.496,29.442 -1.039,0.894 -0.113,7.735 c -0.127,8.709 0.058,9.401 2.632,9.884 3.994,0.75 4.703,-0.754 4.703,-9.971 v -7.269 l -1.082,-1.083 c -1.421,-1.42 -3.575,-1.501 -5.101,-0.19 m 8.519,0.001 -1.039,0.894 v 7.845 7.845 l 1.111,0.889 c 3.531,2.825 5.885,0.663 6.049,-5.556 l 0.122,-4.663 h -1.882 c -1.76,0 -1.882,0.06 -1.882,0.926 0,0.679 0.198,0.926 0.741,0.926 0.963,0 1.143,6.242 0.203,7.023 -0.779,0.646 -1.78,0.332 -2.323,-0.73 -0.671,-1.31 -0.382,-13.665 0.33,-14.116 1.293,-0.821 2.531,-0.038 2.531,1.601 0,0.915 0.136,1.037 1.16,1.037 1.15,0 1.158,-0.012 0.948,-1.573 -0.408,-3.042 -3.756,-4.337 -6.069,-2.348 m 49.459,-0.637 c -0.122,0.286 -0.122,3.589 0.001,13.91 0.056,4.722 0.056,4.722 0.945,4.722 1.145,0 1.207,-0.698 0.963,-10.926 -0.181,-7.616 -0.202,-7.78 -0.983,-7.891 -0.44,-0.063 -0.856,0.02 -0.926,0.185 m 10.705,-0.001 c -0.585,0.153 -0.651,0.819 -0.684,6.901 l -0.037,6.732 -1.712,-6.759 -1.713,-6.759 h -1.427 -1.426 l 0.102,9.08 c 0.107,9.508 0.167,9.964 1.294,9.748 0.642,-0.123 0.71,-0.649 0.881,-6.773 l 0.185,-6.638 1.086,4.791 c 1.817,8.024 2.014,8.495 3.544,8.495 h 1.296 l -0.009,-3.055 c -0.031,-9.712 -0.21,-16.013 -0.454,-15.976 -0.152,0.024 -0.569,0.119 -0.926,0.213 m 5.345,0.162 c -2.083,0.606 -2.351,1.839 -2.218,10.211 0.132,8.372 0.241,8.631 3.616,8.631 2.861,0 3.165,-0.599 3.165,-6.242 v -4.684 h -1.482 c -1.726,0 -2.483,1.522 -0.955,1.922 0.947,0.247 1.159,5.368 0.272,6.58 -2.247,3.074 -3.501,-3.005 -2.517,-12.206 l 0.237,-2.222 h 1.297 c 1.191,0 1.305,0.097 1.412,1.203 0.19,1.973 1.921,1.76 1.921,-0.236 0,-2.53 -1.98,-3.763 -4.748,-2.957 m 30.47,0.371 c 0.111,0.483 0.725,3.128 1.365,5.878 0.697,3 1.229,6.444 1.331,8.611 0.166,3.52 0.192,3.611 1.061,3.611 0.864,0 0.891,-0.088 0.891,-2.827 0,-1.957 0.391,-4.436 1.271,-8.055 1.965,-8.087 1.957,-8.007 0.822,-8.007 -0.79,0 -1.015,0.238 -1.315,1.389 -0.324,1.244 -1.462,6.652 -1.555,7.392 -0.021,0.161 -0.436,-1.608 -0.924,-3.932 -1.016,-4.849 -0.789,-4.346 -2.114,-4.678 -0.948,-0.238 -1.019,-0.186 -0.833,0.618 m 14.951,-0.153 c -1.349,0.837 -1.403,1.176 -1.409,8.877 -0.006,8.555 0.397,9.709 3.404,9.735 2.699,0.023 3.999,-1.243 3.999,-3.895 0,-2.054 -1.747,-1.88 -2.081,0.208 -0.266,1.663 -1.596,2.406 -2.564,1.432 -0.701,-0.707 -0.852,-13.764 -0.168,-14.587 0.974,-1.174 2.402,-0.474 2.648,1.298 0.234,1.693 2.165,1.524 2.165,-0.189 0,-2.854 -3.401,-4.487 -5.994,-2.879 m 24.437,2.975 c -0.069,1.986 -0.123,6.278 -0.118,9.537 l 0.008,5.926 3.056,0.108 3.055,0.107 v -1.126 c 0,-1.118 -0.014,-1.126 -2.037,-1.126 h -2.037 v -3.518 -3.519 h 1.664 c 2.407,0 2.294,-1.601 -0.125,-1.78 l -1.539,-0.114 v -3.127 -3.127 h 2.037 c 1.926,0 2.037,-0.05 2.037,-0.926 0,-0.91 -0.051,-0.926 -2.937,-0.926 h -2.938 l -0.126,3.611 m 25.744,-2.718 -1.039,0.894 -0.113,7.735 c -0.127,8.709 0.057,9.401 2.632,9.884 3.994,0.75 4.703,-0.754 4.703,-9.971 v -7.269 l -1.083,-1.083 c -1.42,-1.42 -3.575,-1.501 -5.1,-0.19 m 26.412,-0.62 -1.437,0.148 0.23,1.919 c 0.127,1.056 0.232,5.311 0.234,9.457 l 0.003,7.538 2.685,-0.258 c 4.179,-0.4 4.142,-0.329 4.291,-8.437 0.164,-8.949 -0.554,-10.894 -3.908,-10.577 -0.363,0.034 -1.307,0.128 -2.098,0.21 m 18.197,-0.017 c -0.586,0.153 -0.652,0.819 -0.685,6.901 l -0.036,6.732 -1.713,-6.759 -1.713,-6.759 h -1.426 -1.427 l 0.102,9.08 c 0.107,9.508 0.168,9.964 1.294,9.748 0.642,-0.123 0.711,-0.649 0.882,-6.773 l 0.185,-6.638 1.085,4.791 c 1.818,8.024 2.014,8.495 3.545,8.495 h 1.296 l -0.01,-3.055 c -0.031,-9.712 -0.21,-16.013 -0.453,-15.976 -0.153,0.024 -0.57,0.119 -0.926,0.213 m 5.344,0.162 c -2.082,0.606 -2.35,1.839 -2.218,10.211 0.133,8.372 0.241,8.631 3.617,8.631 2.861,0 3.164,-0.599 3.164,-6.242 v -4.684 h -1.481 c -1.727,0 -2.483,1.522 -0.955,1.922 0.946,0.247 1.158,5.368 0.272,6.58 -2.248,3.074 -3.501,-3.005 -2.518,-12.206 l 0.238,-2.222 h 1.296 c 1.192,0 1.306,0.097 1.413,1.203 0.19,1.973 1.921,1.76 1.921,-0.236 0,-2.53 -1.981,-3.763 -4.749,-2.957 m -229.569,6.712 c 0.125,3.717 0.231,7.884 0.235,9.259 l 0.008,2.5 h 2.552 c 4.349,0 4.3,0.102 4.3,-9.075 v -7.656 l -1.039,-0.894 c -0.887,-0.762 -1.424,-0.893 -3.661,-0.893 h -2.621 l 0.226,6.759 m 30.49,-4.466 c 0.373,4.83 1.608,15.931 1.81,16.256 0.315,0.511 2.757,0.408 2.951,-0.123 0.093,-0.255 0.468,-3.463 0.834,-7.13 l 0.665,-6.667 0.479,6.842 c 0.552,7.876 0.413,7.418 2.254,7.418 1.643,0 1.575,0.191 2.241,-6.297 0.219,-2.139 0.643,-5.686 0.941,-7.883 0.685,-5.051 0.723,-4.709 -0.52,-4.709 h -1.061 l -0.655,6.574 c -1.021,10.237 -1.083,10.347 -1.61,2.87 -0.679,-9.621 -0.64,-9.444 -2.1,-9.444 -1.071,0 -1.233,0.136 -1.427,1.203 -0.182,1.007 -1.228,11.363 -1.392,13.797 -0.028,0.407 -0.403,-2.76 -0.835,-7.037 l -0.784,-7.778 -0.986,-0.114 -0.985,-0.114 0.18,2.336 m 14.398,-1.852 c -0.089,0.267 -0.595,4.068 -1.123,8.448 -0.528,4.379 -1.052,8.433 -1.165,9.009 -0.19,0.97 -0.129,1.038 0.849,0.926 0.991,-0.113 1.077,-0.264 1.435,-2.524 0.381,-2.401 0.382,-2.403 1.772,-2.629 1.659,-0.269 1.585,-0.368 1.915,2.532 0.256,2.25 0.294,2.315 1.343,2.315 1.034,0 1.071,-0.058 0.887,-1.389 -0.735,-5.331 -2.121,-14.573 -2.347,-15.648 -0.293,-1.4 -3.163,-2.237 -3.566,-1.04 m 7,8.91 0.022,9.352 2.91,-0.07 c 3.194,-0.077 3.551,-0.216 2.965,-1.151 -0.259,-0.413 -0.99,-0.67 -2.116,-0.743 l -1.722,-0.113 v -8.313 -8.313 h -1.04 -1.04 l 0.021,9.351 m 7.129,-0.225 c -0.254,9.881 -0.267,9.763 1.063,9.763 h 0.904 V 204 c 0,-5.156 0.087,-5.161 2.019,-0.111 1.656,4.328 1.674,4.354 2.922,4.196 l 0.956,-0.122 -1.795,-4.531 -1.795,-4.53 1.624,-4.66 1.624,-4.659 -1.153,0.116 c -1.108,0.111 -1.197,0.253 -2.326,3.72 -1.727,5.306 -2.076,5.367 -2.076,0.359 0,-4.103 -0.009,-4.148 -0.867,-4.148 h -0.867 l -0.233,9.126 m 40.243,-4.976 c 0.117,2.301 0.22,6.475 0.228,9.276 l 0.015,5.092 h 2.609 c 4.334,0 4.428,-0.187 4.428,-8.817 0,-9.106 -0.169,-9.459 -4.594,-9.625 l -2.901,-0.109 0.215,4.183 m 10.073,-3.709 c -0.09,0.267 -0.595,4.068 -1.123,8.448 -0.528,4.379 -1.053,8.433 -1.166,9.009 -0.19,0.97 -0.128,1.038 0.849,0.926 0.991,-0.113 1.077,-0.264 1.436,-2.524 0.381,-2.401 0.382,-2.403 1.772,-2.629 1.659,-0.269 1.584,-0.368 1.914,2.532 0.257,2.25 0.295,2.315 1.343,2.315 1.034,0 1.071,-0.058 0.888,-1.389 -0.736,-5.331 -2.122,-14.573 -2.347,-15.648 -0.294,-1.4 -3.163,-2.237 -3.566,-1.04 m 28.889,0 c -0.09,0.267 -0.595,4.068 -1.123,8.448 -0.528,4.379 -1.053,8.433 -1.166,9.009 -0.19,0.97 -0.128,1.038 0.849,0.926 0.991,-0.113 1.077,-0.264 1.435,-2.524 0.382,-2.401 0.383,-2.403 1.773,-2.629 1.659,-0.269 1.584,-0.368 1.914,2.532 0.257,2.25 0.295,2.315 1.343,2.315 1.034,0 1.071,-0.058 0.888,-1.389 -0.736,-5.331 -2.122,-14.573 -2.347,-15.648 -0.294,-1.4 -3.163,-2.237 -3.566,-1.04 m 7.086,8.91 0.065,9.352 0.954,0.118 c 1.027,0.126 1.195,-0.74 0.972,-5.004 -0.088,-1.682 0.227,-3.077 0.695,-3.077 0.162,0 0.844,1.736 1.516,3.857 1.089,3.438 1.327,3.878 2.182,4.042 1.394,0.268 1.393,0.239 -0.018,-4.091 l -1.291,-3.963 0.949,-0.816 c 0.873,-0.751 0.959,-1.095 1.076,-4.348 0.171,-4.734 -0.395,-5.421 -4.462,-5.421 h -2.703 l 0.065,9.351 m 25.174,0 c 0.122,5.144 0.272,9.409 0.333,9.478 0.404,0.455 5.124,-0.492 5.739,-1.152 1.4,-1.503 1.47,-7.291 0.101,-8.4 -0.702,-0.568 -0.703,-0.614 -0.05,-1.69 1.276,-2.102 0.643,-6.724 -1.008,-7.357 -0.329,-0.127 -1.665,-0.23 -2.968,-0.23 h -2.369 l 0.222,9.351 m 18.159,-7.592 c -0.123,0.967 -0.654,5.078 -1.179,9.135 -0.769,5.949 -0.861,7.436 -0.475,7.685 1.116,0.72 1.587,0.138 1.926,-2.378 l 0.336,-2.498 h 1.579 1.579 l 0.258,2.408 c 0.252,2.356 0.28,2.407 1.342,2.407 1.018,0 1.073,-0.075 0.887,-1.204 -0.108,-0.662 -0.36,-2.453 -0.56,-3.981 -0.2,-1.528 -0.702,-5.006 -1.116,-7.729 -0.414,-2.724 -0.752,-5.099 -0.752,-5.278 0,-0.18 -0.81,-0.326 -1.801,-0.326 h -1.8 l -0.224,1.759 m 7.408,7.592 0.065,9.352 0.954,0.118 c 1.027,0.126 1.195,-0.74 0.971,-5.004 -0.088,-1.682 0.228,-3.077 0.696,-3.077 0.161,0 0.844,1.736 1.516,3.857 1.089,3.438 1.326,3.878 2.181,4.042 1.394,0.268 1.394,0.239 -0.017,-4.091 l -1.292,-3.963 0.949,-0.816 c 0.874,-0.751 0.959,-1.095 1.077,-4.348 0.171,-4.734 -0.395,-5.421 -4.463,-5.421 h -2.702 l 0.065,9.351 m 17.286,-5.405 c 0.133,2.171 0.242,6.421 0.242,9.445 v 5.498 h 0.887 c 1.175,0 1.266,-0.969 1.036,-11.019 l -0.18,-7.87 h -1.113 -1.113 l 0.241,3.946 M 64.769,191.612 c 0.451,0.542 0.641,13.296 0.215,14.406 -0.414,1.081 -1.707,1.215 -2.483,0.257 -0.935,-1.155 -0.854,-14.205 0.092,-14.802 0.792,-0.5 1.694,-0.443 2.176,0.139 m 169.63,0 c 0.45,0.542 0.641,13.296 0.215,14.406 -0.415,1.081 -1.708,1.215 -2.484,0.257 -0.935,-1.155 -0.854,-14.205 0.092,-14.802 0.793,-0.5 1.694,-0.443 2.177,0.139 M 55.83,191.944 c 0.515,0.653 0.925,12.219 0.476,13.402 -0.294,0.772 -0.606,0.95 -1.667,0.95 h -1.306 v -7.407 -7.408 h 1.066 c 0.586,0 1.23,0.209 1.431,0.463 m 43.187,8.149 c 0.17,1.372 0.157,1.388 -1.122,1.388 -1.284,0 -1.292,-0.009 -1.088,-1.388 0.114,-0.764 0.308,-2.723 0.433,-4.352 0.439,-5.748 0.571,-5.424 1.777,4.352 m 56.215,-7.999 c 0.372,0.447 0.544,2.229 0.638,6.621 0.15,6.913 -0.026,7.581 -1.994,7.581 h -1.283 v -7.407 -7.408 h 1.065 c 0.587,0 1.295,0.276 1.574,0.613 m 8.23,7.999 c 0.169,1.372 0.156,1.388 -1.122,1.388 -1.285,0 -1.293,-0.009 -1.088,-1.388 0.113,-0.764 0.307,-2.723 0.432,-4.352 0.439,-5.748 0.572,-5.424 1.778,4.352 m 28.889,0 c 0.169,1.372 0.156,1.388 -1.123,1.388 -1.284,0 -1.292,-0.009 -1.087,-1.388 0.113,-0.764 0.307,-2.723 0.432,-4.352 0.439,-5.748 0.572,-5.424 1.778,4.352 m 9.154,-7.045 c 0.822,3.054 -0.173,5.662 -2.058,5.392 -0.674,-0.097 -0.753,-0.427 -0.85,-3.533 l -0.106,-3.426 h 1.296 c 1.21,0 1.323,0.104 1.718,1.567 m 24.359,-1.085 c 1.46,1.758 0.618,5.444 -1.243,5.444 -0.9,0 -0.917,-0.056 -0.917,-2.963 0,-3.069 0.856,-4.053 2.16,-2.481 m 17.253,8.5 c 0.179,0.924 0.097,1.018 -0.882,1.018 -1.548,0 -1.579,-0.196 -0.867,-5.441 l 0.643,-4.744 0.454,4.074 c 0.249,2.241 0.543,4.533 0.652,5.093 m 9.128,-7.415 c 0.823,3.054 -0.173,5.662 -2.057,5.392 -0.674,-0.097 -0.754,-0.427 -0.85,-3.533 l -0.107,-3.426 h 1.296 c 1.211,0 1.324,0.104 1.718,1.567 m 8.481,-1.029 c 0.621,0.748 0.616,13.368 -0.006,14.117 -0.242,0.292 -0.92,0.531 -1.506,0.531 h -1.066 v -7.593 -7.593 h 1.066 c 0.586,0 1.266,0.242 1.512,0.538 m -34.443,7.957 c 0.549,1.026 0.488,5.402 -0.081,5.875 -0.256,0.212 -0.923,0.501 -1.482,0.641 l -1.016,0.255 v -3.744 -3.744 h 1.098 c 0.706,0 1.235,0.256 1.481,0.717 m -85.172,7.224 c 0,0.498 0.16,1.004 0.356,1.125 0.228,0.141 0.228,0.557 0,1.157 -0.785,2.065 0.279,2.34 1.242,0.32 1.038,-2.175 0.853,-3.506 -0.487,-3.506 -0.931,0 -1.111,0.147 -1.111,0.904 m 71.111,0 c 0,0.498 0.161,1.004 0.356,1.125 0.228,0.141 0.228,0.557 0,1.157 -0.785,2.065 0.279,2.34 1.242,0.32 1.038,-2.175 0.853,-3.506 -0.487,-3.506 -0.931,0 -1.111,0.147 -1.111,0.904"
       stroke="none"
       fill="#241c14"
       fill-rule="evenodd" />
    <path
       id="path1"
       d=""
       stroke="none"
       fill="#281c14"
       fill-rule="evenodd" />
    <path
       id="path2"
       d=""
       stroke="none"
       fill="#281c14"
       fill-rule="evenodd" />
    <path
       id="path3"
       d=""
       stroke="none"
       fill="#281c14"
       fill-rule="evenodd" />
    <path
       id="path4"
       d=""
       stroke="none"
       fill="#281c14"
       fill-rule="evenodd" />
  </g>
</svg>
